<svg width="36" height="36" viewBox="0 0 36 36" fill="none" xmlns="http://www.w3.org/2000/svg">
<path d="M30.2102 20.0285L30.2172 20.032C30.3262 19.3676 30.3789 18.6891 30.3789 18.0176C30.3789 17.4164 30.3332 16.8117 30.2488 16.2211C30.3332 16.8082 30.3754 17.4023 30.3754 17.9965C30.3754 18.6785 30.3191 19.3605 30.2102 20.0285ZM3.48086 13.9957C3.46328 13.9816 3.44922 13.9676 3.43164 13.95C3.45625 13.9746 3.48086 13.9992 3.50898 14.0238L5.81172 15.9891V15.9855L3.48086 13.9957ZM22.3457 6.40195H22.3492L21.8043 3.45586C21.7973 3.4207 21.7902 3.38906 21.7797 3.35742C21.7832 3.375 21.7902 3.39609 21.7938 3.41367L22.3457 6.40195ZM24.2441 25.6148L25.348 24.7078L28.6105 25.8645C29.2082 25.0594 29.7109 24.1945 30.1082 23.277L27.482 21.0305L27.7141 19.6207C27.802 19.0898 27.8477 18.5449 27.8477 18C27.8477 17.4551 27.802 16.9102 27.7141 16.3793L27.4855 14.9766L30.1117 12.7301C29.7109 11.816 29.2117 10.9477 28.6141 10.1426L25.3516 11.2992L24.2477 10.3922C23.4074 9.70312 22.4688 9.16172 21.4598 8.78203L20.1203 8.2793L19.491 4.86914C18.4981 4.75664 17.4957 4.75664 16.5027 4.86914L15.8734 8.28633L14.541 8.78906C13.5391 9.16875 12.6074 9.71016 11.7742 10.3957L10.6703 11.3063L7.38672 10.1391C6.78906 10.9441 6.28633 11.809 5.88906 12.7266L8.54336 14.9941L8.31484 16.4004C8.22695 16.9242 8.18477 17.4621 8.18477 18C8.18477 18.5344 8.23047 19.0758 8.31484 19.5996L8.54336 21.0059L5.88906 23.2734C6.28984 24.1875 6.78906 25.0559 7.38672 25.8609L10.6703 24.6938L11.7742 25.6043C12.6074 26.2898 13.5391 26.8312 14.541 27.2109L15.8699 27.7207L16.4992 31.1379C17.4906 31.2504 18.4996 31.2504 19.4875 31.1379L20.1168 27.7277L21.4563 27.225C22.4688 26.8453 23.4039 26.3039 24.2441 25.6148ZM18.018 23.8465C16.9457 23.8465 15.9367 23.5723 15.0543 23.0906C13.1242 22.043 11.8129 20.0004 11.8129 17.6484C11.8129 14.2312 14.5832 11.4609 18.0004 11.4609C20.3523 11.4609 22.3949 12.7723 23.4426 14.7023C23.9242 15.5813 24.1984 16.5902 24.1984 17.666C24.1984 21.0797 21.4316 23.8465 18.018 23.8465ZM7.28477 28.575C7.09141 28.6418 6.89102 28.6559 6.70117 28.6172C6.90156 28.6594 7.1125 28.6523 7.31641 28.582L10.1781 27.5625C10.1746 27.559 10.1676 27.5555 10.1641 27.552L7.28477 28.575ZM32.5129 13.9957L30.2102 15.9645C30.2102 15.9715 30.2137 15.982 30.2137 15.9891L32.5129 14.0238C32.7625 13.8094 32.9031 13.5 32.9066 13.1801C32.8961 13.4895 32.7555 13.7883 32.5129 13.9957Z" fill="#F0F5FF"/>
<path d="M32.8995 22.732C32.9171 22.8973 32.8995 23.066 32.8397 23.2277L32.8081 23.3191C32.1726 25.0902 31.2234 26.7324 30.0061 28.1672L29.9429 28.241C29.7954 28.4153 29.5983 28.5407 29.3779 28.6003C29.1575 28.66 28.9242 28.6511 28.7089 28.575L25.8507 27.559C24.8021 28.4229 23.6178 29.1071 22.3456 29.584L21.7937 32.5723C21.752 32.7971 21.6429 33.004 21.4809 33.1654C21.3189 33.3267 21.1116 33.435 20.8866 33.4758L20.7917 33.4934C19.8729 33.6595 18.9411 33.743 18.0073 33.743H18.0179C18.9566 33.743 19.8952 33.6586 20.8093 33.4934L20.9042 33.4758C21.1292 33.435 21.3365 33.3267 21.4985 33.1654C21.6605 33.004 21.7696 32.7971 21.8112 32.5723L22.3632 29.5875C23.6358 29.1094 24.8101 28.4309 25.8647 27.566L28.7194 28.582C28.9347 28.6582 29.1681 28.667 29.3885 28.6073C29.6089 28.5477 29.8059 28.4224 29.9534 28.248L30.0167 28.1742C31.2401 26.7293 32.1788 25.1016 32.8151 23.3332L32.8468 23.2418C32.903 23.0766 32.9206 22.9008 32.8995 22.732Z" fill="#F0F5FF"/>
<path d="M24.1877 17.6483C24.1877 16.5831 23.917 15.5776 23.4424 14.7022C22.3947 12.7722 20.3522 11.4608 18.0002 11.4608C14.583 11.4608 11.8127 14.2312 11.8127 17.6483C11.8127 20.0003 13.124 22.0429 15.0541 23.0905C15.9295 23.5651 16.9315 23.8358 18.0002 23.8358C21.4174 23.8358 24.1877 21.0655 24.1877 17.6483ZM14.0627 17.6483C14.0627 16.5972 14.474 15.6093 15.2158 14.864C15.9611 14.1187 16.949 13.7108 18.0002 13.7108C19.0514 13.7108 20.0393 14.1187 20.7846 14.864C21.1508 15.2292 21.4413 15.6632 21.6392 16.141C21.8371 16.6189 21.9385 17.1311 21.9377 17.6483C21.9377 18.6995 21.5264 19.6874 20.7846 20.4327C20.4194 20.799 19.9854 21.0894 19.5075 21.2873C19.0297 21.4852 18.5174 21.5866 18.0002 21.5858C16.949 21.5858 15.9611 21.1745 15.2158 20.4327C14.8496 20.0675 14.5592 19.6335 14.3613 19.1557C14.1634 18.6778 14.0619 18.1655 14.0627 17.6483Z" fill="#2F54EB"/>
<path d="M20.8865 33.4757C21.1115 33.4349 21.3188 33.3267 21.4808 33.1653C21.6428 33.0039 21.7519 32.797 21.7936 32.5722L22.3455 29.5839C23.6177 29.107 24.802 28.4228 25.8506 27.5589L28.7088 28.5749C28.9241 28.6511 29.1574 28.6599 29.3778 28.6002C29.5982 28.5406 29.7953 28.4153 29.9428 28.2409L30.0061 28.1671C31.2295 26.7222 32.1717 25.0909 32.808 23.3191L32.8397 23.2277C32.8994 23.0659 32.917 22.8972 32.8994 22.732C32.8678 22.4542 32.7342 22.1905 32.5127 21.9972L30.217 20.0319L30.21 20.0284C30.3189 19.3605 30.3752 18.6784 30.3752 17.9964C30.3752 17.4023 30.333 16.8046 30.2486 16.221C30.2381 16.1437 30.224 16.0663 30.2135 15.989C30.2135 15.9819 30.21 15.9714 30.21 15.9644L32.5127 13.9956C32.7553 13.7882 32.8959 13.4894 32.9064 13.18C32.91 13.0394 32.8889 12.8952 32.8397 12.7581L32.808 12.6667C32.1741 10.8949 31.2248 9.25245 30.0061 7.81866L29.9428 7.74483C29.7949 7.57099 29.5979 7.44602 29.3776 7.3864C29.1573 7.32678 28.9241 7.3353 28.7088 7.41084L25.8506 8.42686C24.7959 7.56202 23.6217 6.87998 22.349 6.40186H22.3455L21.7936 3.41358C21.79 3.396 21.7865 3.3749 21.7795 3.35733C21.7287 3.14477 21.6173 2.95154 21.4588 2.80112C21.3003 2.65071 21.1015 2.54959 20.8865 2.51006L20.7916 2.49248C18.96 2.16201 17.0334 2.16201 15.2018 2.49248L15.1068 2.51006C14.8818 2.55083 14.6745 2.6591 14.5125 2.82048C14.3505 2.98186 14.2415 3.18872 14.1998 3.41358L13.6443 6.41592C12.3818 6.89415 11.2061 7.57582 10.1639 8.43389L7.28458 7.41084C7.0693 7.3347 6.83595 7.32587 6.61554 7.38553C6.39512 7.44519 6.19808 7.5705 6.05059 7.74483L5.98731 7.81866C4.77001 9.25347 3.8209 10.8957 3.18536 12.6667L3.15372 12.7581C3.08046 12.9624 3.06769 13.1835 3.11695 13.3949C3.16622 13.6063 3.27541 13.799 3.43145 13.9499C3.44903 13.964 3.46309 13.9816 3.48067 13.9956L5.81153 15.9855V15.989C5.70255 16.6499 5.64981 17.3214 5.64981 17.9929C5.64981 18.6679 5.70255 19.3429 5.81153 20.0003L3.48067 21.9902C3.30698 22.1388 3.18267 22.3369 3.12427 22.5579C3.06587 22.779 3.07614 23.0126 3.15372 23.2277L3.18536 23.3191C3.82169 25.0909 4.76387 26.7257 5.98731 28.1671L6.05059 28.2409C6.22286 28.4413 6.45137 28.5714 6.70098 28.6171C6.89083 28.6523 7.09122 28.6417 7.28458 28.5749L10.1639 27.5519C10.1674 27.5554 10.1744 27.5589 10.1779 27.5624C11.2221 28.4167 12.3857 29.0952 13.6443 29.5698L14.1998 32.5722C14.2415 32.797 14.3505 33.0039 14.5125 33.1653C14.6745 33.3267 14.8818 33.4349 15.1068 33.4757L15.2018 33.4933C16.1193 33.6585 17.058 33.7429 17.9967 33.7429H18.0072C18.9424 33.7429 19.8811 33.6585 20.7916 33.4933L20.8865 33.4757ZM19.4873 31.1378C18.4944 31.2503 17.4919 31.2503 16.499 31.1378L15.8697 27.7206L14.5408 27.2109C13.5389 26.8312 12.6072 26.2898 11.774 25.6042L10.6701 24.6937L7.38653 25.8609C6.78887 25.0558 6.28966 24.1874 5.88887 23.2734L8.54317 21.0058L8.31466 19.5995C8.23028 19.0757 8.18458 18.5343 8.18458 17.9999C8.18458 17.462 8.22676 16.9241 8.31466 16.4003L8.54317 14.9941L5.88887 12.7265C6.28614 11.8089 6.78887 10.944 7.38653 10.139L10.6701 11.3062L11.774 10.3956C12.6072 9.71007 13.5389 9.16866 14.5408 8.78897L15.8732 8.28624L16.5025 4.86905C17.4904 4.75655 18.4994 4.75655 19.4908 4.86905L20.1201 8.2792L21.4596 8.78194C22.4686 9.16163 23.4072 9.70303 24.2475 10.3921L25.3514 11.2991L28.6139 10.1425C29.2115 10.9476 29.7107 11.8159 30.1115 12.73L27.4854 14.9765L27.7139 16.3792C27.8018 16.9101 27.8475 17.455 27.8475 17.9999C27.8475 18.5448 27.8018 19.0898 27.7139 19.6206L27.4818 21.0304L30.108 23.2769C29.7099 24.1941 29.2074 25.0623 28.6104 25.8644L25.3479 24.7077L24.2439 25.6148C23.4037 26.3038 22.4686 26.8452 21.4561 27.2249L20.1166 27.7277L19.4873 31.1378Z" fill="#2F54EB"/>
</svg>
